<?xml version="1.0" standalone="no"?>
<!DOCTYPE svg PUBLIC "-//W3C//DTD SVG 20010904//EN"
 "http://www.w3.org/TR/2001/REC-SVG-20010904/DTD/svg10.dtd">
<svg version="1.0" xmlns="http://www.w3.org/2000/svg"
 width="1202.000000pt" height="1194.000000pt" viewBox="0 0 1202.000000 1194.000000"
 preserveAspectRatio="xMidYMid meet">

<g transform="translate(0.000000,1194.000000) scale(0.100000,-0.100000)"
fill="#000000" stroke="none">
<path d="M5475 11450 c-33 -4 -114 -14 -180 -20 -66 -7 -156 -19 -200 -26 -44
-8 -102 -17 -129 -20 -28 -3 -53 -7 -57 -9 -3 -3 -51 -13 -105 -24 -186 -37
-279 -59 -404 -96 -154 -46 -358 -112 -385 -125 -11 -5 -58 -23 -105 -41 -47
-17 -113 -44 -147 -60 -34 -16 -64 -29 -68 -29 -13 0 -325 -152 -420 -204 -22
-12 -57 -32 -77 -43 -21 -11 -35 -23 -31 -27 3 -3 -1 -6 -10 -6 -16 0 -85 -38
-162 -89 -22 -15 -52 -33 -67 -40 -15 -8 -37 -22 -47 -33 -11 -10 -24 -18 -30
-18 -5 0 -22 -12 -38 -27 -17 -16 -43 -35 -59 -43 -16 -8 -71 -46 -123 -84
-77 -58 -90 -71 -75 -78 15 -6 14 -7 -7 -6 -14 2 -38 -8 -55 -20 -37 -29 -102
-83 -123 -102 -9 -8 -32 -28 -51 -44 -99 -81 -199 -179 -193 -189 3 -6 1 -7
-5 -3 -6 3 -27 -10 -47 -30 -29 -29 -34 -39 -23 -46 10 -7 8 -8 -5 -4 -23 7
-92 -57 -81 -75 5 -8 3 -9 -6 -4 -8 5 -17 2 -24 -7 -6 -8 -54 -61 -106 -117
-52 -57 -104 -114 -115 -128 -11 -14 -45 -56 -75 -92 -31 -37 -69 -84 -85
-106 -16 -22 -40 -52 -53 -67 -13 -14 -21 -31 -17 -37 4 -7 1 -10 -7 -9 -7 2
-12 -5 -12 -14 1 -10 -3 -16 -10 -15 -6 1 -10 -6 -10 -15 1 -10 -3 -16 -8 -15
-6 1 -28 -23 -49 -53 -21 -30 -43 -60 -48 -67 -6 -7 -24 -34 -40 -60 -15 -26
-47 -76 -70 -110 -22 -34 -41 -66 -41 -71 0 -5 -7 -15 -15 -22 -9 -7 -14 -19
-11 -27 3 -8 2 -12 -2 -9 -10 6 -52 -68 -52 -90 0 -8 -4 -14 -9 -14 -14 0
-204 -369 -225 -437 -4 -13 -12 -23 -17 -23 -5 0 -9 -7 -9 -15 0 -14 -50 -148
-70 -186 -5 -9 -23 -58 -40 -110 -17 -52 -38 -106 -45 -120 -8 -14 -18 -43
-24 -65 -5 -21 -19 -70 -31 -109 -40 -126 -91 -319 -92 -350 0 -16 -4 -34 -8
-40 -4 -5 -13 -37 -20 -70 -6 -33 -16 -80 -21 -105 -31 -143 -64 -385 -79
-570 -27 -339 -28 -446 -9 -765 11 -170 24 -332 29 -360 5 -27 9 -71 9 -97 1
-26 5 -49 10 -53 6 -3 9 -13 9 -23 -4 -75 119 -640 153 -703 5 -10 7 -19 4
-19 -2 0 2 -17 10 -37 7 -21 23 -72 35 -113 12 -41 27 -88 35 -105 7 -16 23
-59 35 -95 13 -36 28 -78 35 -95 46 -112 63 -144 70 -137 5 4 5 1 1 -6 -4 -7
11 -50 33 -98 23 -47 41 -89 41 -93 0 -3 8 -22 18 -41 11 -19 47 -89 81 -155
68 -130 250 -441 288 -491 13 -17 23 -34 23 -37 0 -4 6 -15 14 -24 8 -10 36
-47 62 -83 215 -295 355 -461 599 -705 175 -175 265 -256 276 -249 5 3 8 2 7
-3 -3 -10 32 -45 96 -97 21 -17 46 -38 55 -46 28 -27 89 -70 99 -70 6 0 12 -6
15 -13 3 -7 24 -26 48 -42 24 -17 50 -36 57 -43 8 -7 18 -9 24 -6 7 4 8 2 4
-4 -4 -6 6 -18 23 -26 16 -9 35 -21 43 -28 20 -19 165 -118 173 -118 3 0 3 5
-1 12 -5 7 -3 8 5 4 7 -5 10 -11 7 -14 -9 -8 33 -34 44 -27 6 4 9 1 8 -5 -2
-7 4 -16 12 -21 8 -4 47 -27 85 -50 107 -64 132 -78 245 -136 58 -30 111 -59
117 -65 7 -6 21 -7 30 -4 10 4 14 4 10 0 -6 -6 77 -50 198 -104 28 -12 64 -28
80 -35 17 -8 68 -28 115 -46 47 -18 87 -36 88 -41 2 -4 11 -8 20 -8 15 0 176
-52 217 -70 11 -5 72 -23 135 -41 63 -17 131 -37 151 -44 20 -8 39 -12 41 -10
2 2 26 -3 53 -11 28 -8 70 -19 95 -24 25 -5 76 -16 115 -25 142 -31 438 -75
535 -81 30 -1 114 -9 185 -17 274 -30 759 -16 1110 32 279 38 345 50 372 68
17 12 24 13 19 4 -6 -10 -4 -12 11 -7 11 4 53 13 94 21 265 52 733 204 977
316 34 16 65 29 68 29 8 0 360 175 399 199 17 9 55 31 85 48 105 57 264 156
310 193 14 11 28 20 32 20 6 0 142 94 178 123 8 7 30 23 48 35 18 13 29 28 26
34 -4 7 -2 8 5 4 10 -7 148 96 252 187 220 192 413 386 612 612 78 89 224 277
283 364 20 30 42 61 50 69 9 8 13 21 10 29 -3 8 -1 11 4 8 8 -5 55 61 145 205
51 81 56 91 49 102 -4 6 -3 8 3 5 16 -10 241 403 268 493 1 3 13 30 27 60 46
98 65 143 102 235 110 281 234 701 221 754 -3 15 -2 21 3 13 5 -8 12 6 21 40
6 29 16 71 22 93 11 48 38 214 50 310 4 39 10 86 13 105 30 198 40 375 40 680
0 236 -10 475 -21 493 -3 5 -8 37 -10 71 -4 59 -21 197 -43 341 -6 39 -13 88
-16 110 -3 22 -9 42 -14 43 -6 2 -10 19 -10 38 0 47 -22 127 -37 137 -7 4 -13
13 -13 20 0 7 4 6 10 -3 9 -13 10 -13 10 0 0 8 -5 31 -11 50 -6 19 -15 51 -19
70 -38 162 -153 516 -209 645 -38 84 -52 117 -72 168 -16 39 -25 53 -32 45 -5
-9 -6 -5 -2 8 4 15 -9 51 -40 111 -25 49 -45 94 -45 100 0 6 -3 13 -7 15 -5 2
-31 48 -60 103 -86 168 -97 188 -114 207 -9 10 -22 31 -30 46 -11 22 -96 153
-228 351 -34 52 -102 142 -128 171 -12 14 -51 62 -86 107 -36 45 -81 99 -101
120 -20 21 -36 41 -36 44 0 3 -23 30 -52 60 -120 127 -201 209 -204 209 -3 0
-20 16 -38 35 -19 19 -32 35 -29 35 2 0 -10 12 -29 28 -18 15 -55 48 -83 74
-27 26 -55 48 -62 48 -7 0 -17 9 -23 19 -5 11 -45 48 -88 83 -42 34 -83 68
-90 75 -7 7 -20 10 -30 7 -12 -4 -14 -3 -4 4 10 7 8 12 -11 25 -13 8 -31 22
-38 29 -25 23 -107 78 -117 78 -5 0 -13 7 -16 16 -4 9 -13 14 -22 10 -8 -3
-12 -1 -9 4 3 5 -14 22 -37 37 -24 15 -48 32 -55 38 -32 27 -203 139 -269 175
-98 54 -219 125 -224 130 -10 10 -218 110 -230 110 -6 0 -8 -6 -4 -12 4 -8 3
-10 -2 -5 -5 5 -9 14 -9 20 0 7 -21 19 -46 27 -26 9 -53 21 -60 27 -16 13
-126 60 -254 109 -49 19 -99 39 -110 44 -11 5 -65 23 -120 40 -55 17 -108 35
-118 41 -9 5 -43 16 -75 23 -31 8 -91 24 -132 35 -145 40 -277 70 -321 73 -24
2 -46 6 -49 10 -3 4 -21 9 -40 11 -19 2 -42 7 -50 10 -38 14 -163 31 -236 31
-45 1 -77 4 -70 8 8 6 8 8 -1 8 -6 0 -45 4 -85 10 -40 5 -98 13 -128 16 -84
10 -847 13 -915 4z m-32 -27 c-7 -2 -21 -2 -30 0 -10 3 -4 5 12 5 17 0 24 -2
18 -5z m-196 -19 c-3 -3 -12 -4 -19 -1 -8 3 -5 6 6 6 11 1 17 -2 13 -5z m-320
-80 c-3 -3 -12 -4 -19 -1 -8 3 -5 6 6 6 11 1 17 -2 13 -5z m2098 -22 c-3 -3
-11 0 -18 7 -9 10 -8 11 6 5 10 -3 15 -9 12 -12z m-1348 -18 c-3 -3 -12 -4
-19 -1 -8 3 -5 6 6 6 11 1 17 -2 13 -5z m-74 -11 c-7 -2 -19 -2 -25 0 -7 3 -2
5 12 5 14 0 19 -2 13 -5z m350 -10 c-13 -2 -33 -2 -45 0 -13 2 -3 4 22 4 25 0
35 -2 23 -4z m300 -10 c-13 -2 -33 -2 -45 0 -13 2 -3 4 22 4 25 0 35 -2 23 -4z
m27 -19 c19 -3 62 -7 95 -9 91 -7 244 -25 295 -35 25 -5 63 -11 85 -14 83 -11
264 -48 375 -76 43 -11 91 -21 107 -22 15 -1 33 -6 40 -11 7 -5 38 -15 70 -23
32 -8 75 -19 96 -25 21 -5 44 -6 50 -3 7 4 9 3 4 -1 -4 -5 44 -25 105 -46 141
-46 361 -129 368 -139 3 -4 19 -10 35 -14 17 -4 67 -25 112 -47 46 -23 88 -37
95 -33 7 4 10 4 6 -1 -4 -4 36 -30 90 -57 82 -42 233 -126 307 -171 143 -87
359 -230 375 -248 3 -3 21 -15 40 -27 20 -11 47 -31 60 -43 14 -12 41 -33 60
-48 19 -14 37 -28 40 -32 3 -3 14 -12 26 -20 24 -16 95 -74 168 -138 28 -24
69 -59 91 -78 58 -50 333 -323 326 -323 -3 0 1 -6 9 -13 8 -7 42 -43 75 -82
33 -38 64 -75 70 -81 26 -29 55 -66 115 -144 36 -47 67 -87 70 -90 3 -3 21
-27 39 -55 19 -27 38 -52 41 -55 4 -3 40 -54 80 -115 41 -60 78 -111 82 -113
5 -2 8 -7 8 -12 0 -14 62 -110 71 -110 5 0 9 -8 9 -17 0 -10 9 -29 20 -43 11
-14 20 -28 20 -31 0 -4 27 -55 61 -115 79 -141 175 -345 239 -506 13 -31 27
-55 32 -52 4 3 5 -1 2 -9 -2 -7 9 -49 25 -92 17 -43 38 -104 46 -134 9 -31 20
-65 25 -76 23 -50 132 -459 146 -550 3 -22 10 -45 16 -52 5 -7 7 -16 5 -20 -3
-5 1 -35 8 -68 12 -55 25 -144 55 -370 29 -212 36 -934 10 -1050 -10 -46 -34
-274 -34 -322 0 -18 -2 -33 -6 -33 -3 0 -12 -35 -19 -77 -6 -43 -16 -94 -21
-113 -5 -19 -23 -98 -41 -175 -17 -77 -39 -167 -49 -200 -10 -33 -28 -96 -40
-140 -12 -44 -26 -84 -31 -89 -5 -6 -9 -19 -9 -30 0 -18 -42 -143 -75 -221 -7
-16 -25 -64 -40 -105 -16 -41 -34 -86 -42 -100 -7 -14 -13 -29 -13 -33 0 -12
-155 -327 -201 -407 -22 -39 -37 -76 -33 -82 4 -6 3 -8 -2 -5 -6 3 -34 -35
-63 -84 -29 -49 -82 -132 -117 -185 -35 -53 -61 -100 -58 -105 3 -5 0 -8 -8
-7 -8 2 -13 -6 -13 -19 0 -11 -4 -25 -8 -29 -4 -5 -5 0 -2 11 6 16 3 15 -15
-5 -11 -14 -28 -36 -38 -50 -9 -14 -39 -54 -67 -90 -62 -79 -90 -123 -87 -133
1 -4 -1 -6 -6 -5 -8 3 -51 -43 -115 -124 -20 -25 -86 -97 -147 -160 -60 -62
-110 -119 -110 -125 0 -7 -5 -13 -11 -13 -7 0 -31 -20 -56 -44 -52 -53 -195
-183 -231 -211 -63 -50 -127 -110 -124 -118 1 -5 -1 -6 -6 -3 -5 3 -20 -3 -33
-14 -46 -36 -179 -135 -233 -174 -31 -21 -53 -44 -49 -49 3 -6 1 -7 -5 -3 -6
4 -46 -17 -89 -47 -136 -92 -416 -257 -460 -271 -13 -4 -23 -12 -23 -17 0 -5
-4 -9 -10 -9 -5 0 -67 -27 -137 -61 -175 -83 -196 -92 -293 -129 -47 -18 -98
-38 -115 -45 -16 -7 -64 -25 -105 -39 -41 -15 -82 -30 -90 -33 -8 -4 -19 -7
-25 -8 -10 -1 -92 -25 -225 -64 -36 -11 -105 -29 -155 -40 -49 -11 -119 -28
-155 -37 -36 -8 -93 -20 -127 -26 -39 -6 -60 -14 -56 -21 3 -6 1 -7 -5 -3 -6
4 -75 -2 -154 -13 -168 -23 -214 -30 -248 -35 -221 -33 -992 -30 -1094 4 -16
6 -49 10 -74 10 -25 0 -111 12 -191 26 -80 14 -161 28 -180 30 -19 3 -38 7
-43 11 -6 3 -51 14 -102 24 -247 50 -545 137 -781 228 -87 34 -100 37 -89 19
4 -7 3 -8 -5 -4 -6 4 -9 11 -7 15 3 4 -18 18 -47 30 -29 13 -81 36 -116 52
-35 16 -67 29 -73 29 -5 0 -14 4 -21 10 -7 5 -75 42 -152 81 -77 39 -142 74
-145 78 -3 3 -34 21 -69 40 -36 19 -91 52 -122 73 -32 21 -62 38 -67 38 -5 0
-15 7 -22 15 -7 9 -19 14 -27 11 -8 -3 -12 -2 -8 3 3 5 -12 20 -32 32 -21 13
-40 26 -43 29 -3 3 -18 14 -35 25 -108 68 -470 353 -552 434 -25 25 -48 39
-54 35 -7 -4 -9 -3 -6 3 3 5 -41 56 -99 114 -85 83 -107 100 -115 89 -8 -12
-9 -11 -5 5 7 25 -76 121 -95 110 -8 -5 -10 -4 -5 3 4 7 -14 36 -43 69 -27 32
-64 74 -80 93 -17 19 -33 43 -37 53 -3 9 -9 17 -13 17 -5 0 -27 25 -50 55 -26
34 -47 53 -54 49 -7 -4 -9 -4 -5 1 8 9 -12 51 -39 80 -22 23 -83 111 -83 119
0 7 -27 41 -60 75 -13 14 -22 26 -20 26 3 0 -10 24 -28 53 -18 29 -36 51 -40
48 -4 -2 -8 6 -8 19 -1 13 -11 33 -22 45 -11 12 -26 35 -32 51 -7 16 -17 26
-23 22 -6 -4 -7 -1 -3 6 5 7 2 20 -6 29 -7 9 -18 26 -24 37 -6 11 -26 47 -44
80 -57 102 -186 367 -211 432 -13 34 -28 59 -33 56 -5 -3 -6 -1 -2 5 4 7 0 24
-8 39 -8 16 -22 52 -32 82 -12 39 -19 50 -26 40 -7 -10 -8 -8 -3 7 3 12 -1 39
-8 60 -67 187 -158 495 -172 584 -9 56 -32 158 -39 168 -3 6 -11 41 -16 79 -5
37 -14 95 -20 128 -6 33 -13 78 -16 99 -2 22 -6 46 -9 55 -2 9 -9 66 -15 126
-6 61 -14 137 -18 170 -12 102 -8 732 5 825 7 47 15 123 18 170 4 46 9 88 12
93 3 5 7 29 8 55 2 26 9 70 15 97 6 28 13 66 16 85 3 19 17 85 30 145 14 61
26 119 28 130 2 12 18 73 35 137 17 65 31 126 31 137 0 12 5 21 10 21 6 0 10
6 10 14 0 31 106 346 147 436 11 25 24 56 28 70 4 14 20 53 36 88 16 34 43 92
60 130 31 68 61 128 109 217 15 28 40 75 56 105 16 30 39 70 52 89 14 21 20
42 17 55 -5 15 -4 17 3 7 12 -16 27 3 16 21 -4 6 -3 8 3 5 6 -4 28 21 48 56
21 34 47 73 57 86 10 13 15 28 11 34 -3 5 -2 7 4 4 6 -4 24 15 40 41 26 42
229 319 243 332 11 10 90 108 90 111 0 10 164 183 325 343 107 107 179 186
177 195 -2 14 -2 14 7 1 9 -12 17 -8 53 26 24 22 77 67 118 99 85 67 96 76
113 90 33 28 166 125 171 125 15 0 44 34 39 46 -3 8 0 14 7 14 6 0 8 -4 5 -10
-13 -21 12 -8 68 34 32 24 75 52 95 62 20 11 39 22 42 25 3 3 22 17 42 31 21
13 35 28 31 32 -4 4 -1 4 8 1 8 -3 26 3 39 15 13 11 27 20 31 20 5 0 30 13 57
29 72 42 160 91 212 117 75 37 282 134 287 134 8 0 77 33 83 39 3 4 12 7 20 8
14 2 114 37 170 60 14 6 61 23 105 38 44 15 85 30 90 35 6 4 17 7 25 7 8 0 72
17 142 37 70 20 147 41 170 46 24 5 81 18 128 29 47 11 105 23 130 27 25 3 50
9 55 12 6 4 15 7 20 8 6 1 73 11 150 23 77 12 162 25 189 30 27 4 86 9 130 10
44 1 85 5 90 9 30 18 665 23 786 6z m2751 -791 c13 -16 12 -17 -3 -4 -17 13
-22 21 -14 21 2 0 10 -8 17 -17z m154 -281 c-3 -3 -11 0 -18 7 -9 10 -8 11 6
5 10 -3 15 -9 12 -12z m136 -89 c13 -15 12 -15 -8 -4 -24 12 -29 21 -14 21 5
0 15 -7 22 -17z m-6911 -77 c0 -3 -4 -8 -10 -11 -5 -3 -10 -1 -10 4 0 6 5 11
10 11 6 0 10 -2 10 -4z m-465 -286 c-3 -5 -11 -10 -16 -10 -6 0 -7 5 -4 10 3
6 11 10 16 10 6 0 7 -4 4 -10z m-358 -652 c-3 -8 -6 -5 -6 6 -1 11 2 17 5 13
3 -3 4 -12 1 -19z m8808 12 c3 -5 1 -10 -4 -10 -6 0 -11 5 -11 10 0 6 2 10 4
10 3 0 8 -4 11 -10z m-9115 -440 c0 -5 -2 -10 -4 -10 -3 0 -8 5 -11 10 -3 6
-1 10 4 10 6 0 11 -4 11 -10z m9243 -10 c3 -11 3 -20 1 -20 -2 0 -8 9 -14 20
-6 11 -7 20 -2 20 6 0 12 -9 15 -20z m-9626 -922 c-3 -8 -6 -5 -6 6 -1 11 2
17 5 13 3 -3 4 -12 1 -19z m10290 -200 c-3 -8 -6 -5 -6 6 -1 11 2 17 5 13 3
-3 4 -12 1 -19z m0 -80 c-3 -8 -6 -5 -6 6 -1 11 2 17 5 13 3 -3 4 -12 1 -19z
m-114 -108 c3 -11 1 -18 -4 -14 -5 3 -9 12 -9 20 0 20 7 17 13 -6z m194 -152
c-3 -8 -6 -5 -6 6 -1 11 2 17 5 13 3 -3 4 -12 1 -19z m30 -70 c-3 -8 -6 -5 -6
6 -1 11 2 17 5 13 3 -3 4 -12 1 -19z m-10786 -115 c-12 -20 -14 -14 -5 12 4 9
9 14 11 11 3 -2 0 -13 -6 -23z m10643 -148 c5 -22 4 -26 -4 -15 -5 8 -10 24
-10 34 0 26 6 18 14 -19z m-10654 -9 c0 -3 -4 -8 -10 -11 -5 -3 -10 -1 -10 4
0 6 5 11 10 11 6 0 10 -2 10 -4z m157 -128 c-3 -7 -5 -2 -5 12 0 14 2 19 5 13
2 -7 2 -19 0 -25z m-10 -55 c-3 -10 -5 -4 -5 12 0 17 2 24 5 18 2 -7 2 -21 0
-30z m10730 -25 c-3 -8 -6 -5 -6 6 -1 11 2 17 5 13 3 -3 4 -12 1 -19z m-10750
-195 c-3 -10 -5 -4 -5 12 0 17 2 24 5 18 2 -7 2 -21 0 -30z m-190 -55 c-2 -13
-4 -3 -4 22 0 25 2 35 4 23 2 -13 2 -33 0 -45z m10770 30 c-3 -7 -5 -2 -5 12
0 14 2 19 5 13 2 -7 2 -19 0 -25z m-10770 -210 c-3 -8 -6 -5 -6 6 -1 11 2 17
5 13 3 -3 4 -12 1 -19z m10800 -420 c-3 -8 -6 -5 -6 6 -1 11 2 17 5 13 3 -3 4
-12 1 -19z m-10723 -773 c5 -22 4 -26 -4 -15 -5 8 -10 24 -10 34 0 26 6 18 14
-19z m10646 -20 c0 -5 -5 -3 -10 5 -5 8 -10 20 -10 25 0 6 5 3 10 -5 5 -8 10
-19 10 -25z m-86 -240 c-4 -8 -8 -15 -10 -15 -2 0 -4 7 -4 15 0 8 4 15 10 15
5 0 7 -7 4 -15z m118 -307 c-6 -6 -7 0 -4 19 5 21 7 23 10 9 2 -10 0 -22 -6
-28z m-42 -122 c0 -3 -4 -8 -10 -11 -5 -3 -10 -1 -10 4 0 6 5 11 10 11 6 0 10
-2 10 -4z m-123 -308 c-3 -8 -6 -5 -6 6 -1 11 2 17 5 13 3 -3 4 -12 1 -19z
m-436 -591 c-10 -9 -11 -8 -5 6 3 10 9 15 12 12 3 -3 0 -11 -7 -18z m141 -59
c-7 -7 -12 -8 -12 -2 0 14 12 26 19 19 2 -3 -1 -11 -7 -17z m-9382 -104 c0 -8
-5 -12 -10 -9 -6 4 -8 11 -5 16 9 14 15 11 15 -7z m9280 -88 c0 -3 -4 -8 -10
-11 -5 -3 -10 -1 -10 4 0 6 5 11 10 11 6 0 10 -2 10 -4z m-9230 -292 c0 -3 -7
-1 -15 6 -8 7 -15 17 -15 22 0 5 7 3 15 -6 8 -8 15 -18 15 -22z m8763 -69 c-3
-9 -8 -14 -10 -11 -3 3 -2 9 2 15 9 16 15 13 8 -4z m-8603 -125 c0 -5 -5 -10
-11 -10 -5 0 -7 5 -4 10 3 6 8 10 11 10 2 0 4 -4 4 -10z m8620 -135 c0 -8 -4
-15 -10 -15 -5 0 -7 7 -4 15 4 8 8 15 10 15 2 0 4 -7 4 -15z m-352 -359 c-7
-8 -15 -12 -17 -11 -5 6 10 25 20 25 5 0 4 -6 -3 -14z m-418 -276 c0 -5 -4
-10 -10 -10 -5 0 -10 5 -10 10 0 6 5 10 10 10 6 0 10 -4 10 -10z m-5413 -856
c-3 -3 -12 -4 -19 -1 -8 3 -5 6 6 6 11 1 17 -2 13 -5z m60 -50 c-3 -3 -12 -4
-19 -1 -8 3 -5 6 6 6 11 1 17 -2 13 -5z m3640 0 c-3 -3 -12 -4 -19 -1 -8 3 -5
6 6 6 11 1 17 -2 13 -5z m-3910 -20 c-3 -3 -12 -4 -19 -1 -8 3 -5 6 6 6 11 1
17 -2 13 -5z m850 -120 c-3 -3 -12 -4 -19 -1 -8 3 -5 6 6 6 11 1 17 -2 13 -5z
m2573 2 c0 -2 -11 -6 -25 -8 -13 -3 -22 -1 -19 3 5 9 44 13 44 5z m113 -3 c-7
-2 -19 -2 -25 0 -7 3 -2 5 12 5 14 0 19 -2 13 -5z m-1910 -140 c-7 -2 -21 -2
-30 0 -10 3 -4 5 12 5 17 0 24 -2 18 -5z m830 -10 c-7 -2 -19 -2 -25 0 -7 3
-2 5 12 5 14 0 19 -2 13 -5z m-470 -10 c-24 -2 -62 -2 -85 0 -24 2 -5 4 42 4
47 0 66 -2 43 -4z m180 0 c-13 -2 -33 -2 -45 0 -13 2 -3 4 22 4 25 0 35 -2 23
-4z m-430 -10 c-7 -2 -19 -2 -25 0 -7 3 -2 5 12 5 14 0 19 -2 13 -5z m755 0
c-10 -2 -26 -2 -35 0 -10 3 -2 5 17 5 19 0 27 -2 18 -5z m85 0 c-7 -2 -19 -2
-25 0 -7 3 -2 5 12 5 14 0 19 -2 13 -5z m800 -40 c-7 -2 -21 -2 -30 0 -10 3
-4 5 12 5 17 0 24 -2 18 -5z m-1886 -99 c-3 -3 -12 -4 -19 -1 -8 3 -5 6 6 6
11 1 17 -2 13 -5z"/>
<path d="M5670 11004 c-372 -25 -631 -62 -940 -135 -772 -184 -1469 -538
-2100 -1067 -156 -131 -454 -430 -581 -582 -707 -849 -1095 -1804 -1180 -2901
-23 -302 -4 -763 46 -1104 134 -911 548 -1810 1166 -2526 156 -181 438 -458
589 -579 24 -19 58 -47 75 -61 122 -103 371 -275 580 -402 162 -97 505 -268
690 -342 603 -243 1232 -365 1892 -365 643 0 1230 108 1823 335 417 160 765
350 1175 641 27 20 99 75 160 124 464 369 873 835 1180 1345 411 683 647 1430
706 2230 24 330 2 839 -51 1160 -119 728 -403 1439 -808 2025 -503 728 -1142
1285 -1921 1675 -692 346 -1405 519 -2186 529 -143 2 -285 2 -315 0z m2972
-2724 c832 -56 1216 -308 1254 -823 l7 -87 -3099 6 c-1704 4 -3100 8 -3101 9
-2 1 308 274 437 384 19 16 161 140 315 274 l280 245 1877 1 c1188 1 1933 -3
2030 -9z m1238 -1107 c0 -10 -11 -61 -25 -113 -32 -116 -117 -292 -193 -399
-157 -218 -418 -447 -727 -637 -171 -105 -500 -280 -721 -382 l-200 -93 42
-127 c64 -191 85 -302 91 -487 8 -233 -27 -400 -126 -597 -41 -83 -49 -93 -76
-97 -17 -2 -310 0 -652 4 l-623 7 49 62 c98 124 161 286 161 416 0 78 -32 194
-84 309 -59 130 -77 185 -83 256 -8 95 9 140 81 210 83 82 180 140 398 241
479 222 700 357 875 536 121 123 156 171 219 298 77 154 109 324 85 441 -7 31
-27 82 -46 113 l-34 56 795 0 c750 0 794 -1 794 -17z m-6675 -322 c-3 -6 -11
-11 -16 -11 -5 0 -4 6 3 14 14 16 24 13 13 -3z m4255 15 c0 -2 -8 -10 -17 -17
-16 -13 -17 -12 -4 4 13 16 21 21 21 13z m-4293 -48 c2 -17 0 -19 -7 -8 -5 8
-6 18 -4 22 8 12 10 10 11 -14z m-37 -22 c0 -3 -4 -8 -10 -11 -5 -3 -10 -1
-10 4 0 6 5 11 10 11 6 0 10 -2 10 -4z m4250 -10 c0 -2 -8 -10 -17 -17 -16
-13 -17 -12 -4 4 13 16 21 21 21 13z m-4324 -51 c-8 -8 -18 -15 -22 -15 -3 0
-1 7 6 15 7 8 17 15 22 15 5 0 3 -7 -6 -15z m4254 -19 c0 -3 -4 -8 -10 -11 -5
-3 -10 -1 -10 4 0 6 5 11 10 11 6 0 10 -2 10 -4z m-4315 -36 c-10 -11 -22 -20
-28 -20 -5 0 1 9 14 20 31 25 37 25 14 0z m-261 -221 c-10 -11 -28 -25 -39
-31 -11 -6 -4 4 15 20 41 36 51 41 24 11z m4231 -69 c-16 -16 -31 -28 -33 -25
-4 4 48 54 57 55 3 0 -8 -13 -24 -30z m-4305 0 c0 -5 -5 -10 -11 -10 -5 0 -7
5 -4 10 3 6 8 10 11 10 2 0 4 -4 4 -10z m-31 -23 c-2 -1 -13 -9 -24 -17 -19
-14 -19 -14 -6 3 7 9 18 17 24 17 6 0 8 -1 6 -3z m4281 -31 c0 -3 -4 -8 -10
-11 -5 -3 -10 -1 -10 4 0 6 5 11 10 11 6 0 10 -2 10 -4z m-120 -111 c-7 -8
-17 -15 -23 -15 -6 0 -2 7 9 15 25 19 30 19 14 0z m-70 -70 c-13 -14 -26 -23
-28 -20 -4 4 38 44 47 45 3 0 -6 -11 -19 -25z m-83 -78 c-12 -13 -24 -22 -26
-20 -6 4 30 43 40 43 5 0 -2 -10 -14 -23z m-4330 7 c-3 -3 -12 -4 -19 -1 -8 3
-5 6 6 6 11 1 17 -2 13 -5z m56 -1 c-7 -2 -19 -2 -25 0 -7 3 -2 5 12 5 14 0
19 -2 13 -5z m575 0 c-10 -2 -26 -2 -35 0 -10 3 -2 5 17 5 19 0 27 -2 18 -5z
m-430 -20 c-16 -2 -40 -2 -55 0 -16 2 -3 4 27 4 30 0 43 -2 28 -4z m495 0 c-7
-2 -21 -2 -30 0 -10 3 -4 5 12 5 17 0 24 -2 18 -5z m1030 0 c-13 -2 -33 -2
-45 0 -13 2 -3 4 22 4 25 0 35 -2 23 -4z m480 0 c-13 -2 -33 -2 -45 0 -13 2
-3 4 22 4 25 0 35 -2 23 -4z m2054 -15 c-3 -8 -6 -5 -6 6 -1 11 2 17 5 13 3
-3 4 -12 1 -19z m-3719 -5 c-60 -2 -156 -2 -215 0 -60 1 -11 3 107 3 118 0
167 -2 108 -3z m512 0 c-131 -7 -367 -7 -357 -1 7 4 102 7 212 6 110 -1 175
-3 145 -5z m2013 0 c-68 -2 -178 -2 -245 0 -68 1 -13 3 122 3 135 0 190 -2
123 -3z m-951 -220 c-40 -2 -103 -2 -140 0 -37 2 -4 3 73 3 77 0 107 -2 67 -3z
m911 0 c-46 -2 -120 -2 -165 0 -46 1 -9 3 82 3 91 0 128 -2 83 -3z m775 0
c-115 -2 -301 -2 -415 0 -115 1 -21 2 207 2 228 0 322 -1 208 -2z m262 0 c-8
-3 -20 -10 -26 -14 -7 -5 -11 -3 -11 6 0 10 10 15 26 14 16 0 20 -3 11 -6z
m-2200 -57 c0 -2 -7 -7 -16 -10 -8 -3 -12 -2 -9 4 6 10 25 14 25 6z m2121 -19
c-10 -9 -11 -8 -5 6 3 10 9 15 12 12 3 -3 0 -11 -7 -18z m-2176 -27 c-10 -11
-22 -20 -28 -20 -5 0 1 9 14 20 31 25 37 25 14 0z m2113 -34 c-7 -8 -15 -12
-17 -11 -5 6 10 25 20 25 5 0 4 -6 -3 -14z m-38 -30 c0 -3 -4 -8 -10 -11 -5
-3 -10 -1 -10 4 0 6 5 11 10 11 6 0 10 -2 10 -4z m-30 -30 c0 -2 -8 -10 -17
-17 -16 -13 -17 -12 -4 4 13 16 21 21 21 13z m-2190 -29 c0 -2 -15 -16 -32
-33 l-33 -29 29 33 c28 30 36 37 36 29z m2060 -91 c0 -3 -4 -8 -10 -11 -5 -3
-10 -1 -10 4 0 6 5 11 10 11 6 0 10 -2 10 -4z m-80 -80 c0 -2 -8 -10 -17 -17
-16 -13 -17 -12 -4 4 13 16 21 21 21 13z m-2250 -81 c-7 -9 -15 -13 -19 -10
-3 3 1 10 9 15 21 14 24 12 10 -5z m2160 -4 c0 -5 -7 -12 -16 -15 -14 -5 -15
-4 -4 9 14 17 20 19 20 6z m-80 -75 c0 -2 -8 -10 -17 -17 -16 -13 -17 -12 -4
4 13 16 21 21 21 13z m-2210 -30 c0 -2 -8 -10 -17 -17 -16 -13 -17 -12 -4 4
13 16 21 21 21 13z m-40 -46 c0 -5 -5 -10 -11 -10 -5 0 -7 5 -4 10 3 6 8 10
11 10 2 0 4 -4 4 -10z m-45 -39 c-3 -6 -11 -11 -16 -11 -5 0 -4 6 3 14 14 16
24 13 13 -3z m-35 -35 c0 -3 -4 -8 -10 -11 -5 -3 -10 -1 -10 4 0 6 5 11 10 11
6 0 10 -2 10 -4z m2150 -20 c0 -3 -4 -8 -10 -11 -5 -3 -10 -1 -10 4 0 6 5 11
10 11 6 0 10 -2 10 -4z m-2200 -21 c-7 -8 -17 -15 -23 -15 -6 0 -2 7 9 15 25
19 30 19 14 0z m-65 -60 c-22 -19 -44 -34 -49 -35 -5 0 11 16 35 35 57 45 66
45 14 0z m-85 -69 c0 -2 -8 -10 -17 -17 -16 -13 -17 -12 -4 4 13 16 21 21 21
13z m2140 -49 c0 -2 -15 -16 -32 -33 l-33 -29 29 33 c28 30 36 37 36 29z
m-2410 -202 c-7 -9 -15 -13 -17 -11 -6 6 20 36 26 30 2 -2 -2 -10 -9 -19z
m-59 -88 c-10 -9 -11 -8 -5 6 3 10 9 15 12 12 3 -3 0 -11 -7 -18z m2134 13
c-3 -5 -12 -10 -18 -10 -7 0 -6 4 3 10 19 12 23 12 15 0z m-2225 -54 c0 -2 -8
-10 -17 -17 -16 -13 -17 -12 -4 4 13 16 21 21 21 13z m2198 -16 c-7 -11 -15
-15 -17 -9 -2 6 3 15 10 20 20 12 21 11 7 -11z m-2183 -40 c-3 -5 -12 -10 -18
-10 -7 0 -6 4 3 10 19 12 23 12 15 0z m2074 -64 c-24 -25 -46 -43 -48 -40 -5
4 79 84 88 84 2 0 -15 -20 -40 -44z m-2194 15 c-3 -6 -11 -11 -17 -11 -6 0 -6
6 2 15 14 17 26 13 15 -4z m-40 -31 c-3 -5 -12 -10 -18 -10 -7 0 -6 4 3 10 19
12 23 12 15 0z m-35 -34 c0 -3 -4 -8 -10 -11 -5 -3 -10 -1 -10 4 0 6 5 11 10
11 6 0 10 -2 10 -4z m2150 -60 c0 -2 -8 -10 -17 -17 -16 -13 -17 -12 -4 4 13
16 21 21 21 13z m-2235 -26 c-3 -5 -11 -10 -16 -10 -6 0 -7 5 -4 10 3 6 11 10
16 10 6 0 7 -4 4 -10z m2175 -35 c-13 -14 -27 -25 -31 -25 -11 0 34 50 45 50
5 0 -1 -11 -14 -25z m-627 -22 c-57 -2 -149 -2 -205 0 -57 1 -11 3 102 3 113
0 159 -2 103 -3z m-1763 -203 c0 -5 -5 -10 -11 -10 -5 0 -7 5 -4 10 3 6 8 10
11 10 2 0 4 -4 4 -10z m323 3 c-57 -2 -149 -2 -205 0 -57 1 -11 3 102 3 113 0
159 -2 103 -3z m560 0 c-13 -2 -33 -2 -45 0 -13 2 -3 4 22 4 25 0 35 -2 23 -4z
m940 0 c-68 -2 -178 -2 -245 0 -68 1 -13 3 122 3 135 0 190 -2 123 -3z m3310
-10 c-205 -2 -541 -2 -745 0 -205 1 -38 2 372 2 410 0 577 -1 373 -2z m-5160
-28 c-3 -9 -8 -14 -10 -11 -3 3 -2 9 2 15 9 16 15 13 8 -4z m-49 -120 c-4 -8
-8 -15 -10 -15 -2 0 -4 7 -4 15 0 8 4 15 10 15 5 0 7 -7 4 -15z m5491 -15 c-9
-16 -18 -30 -21 -30 -2 0 2 14 11 30 9 17 18 30 21 30 2 0 -2 -13 -11 -30z
m-65 -104 c0 -2 -8 -10 -17 -17 -16 -13 -17 -12 -4 4 13 16 21 21 21 13z
m-117 -141 c-3 -9 -8 -14 -10 -11 -3 3 -2 9 2 15 9 16 15 13 8 -4z m-33 -28
c0 -2 -10 -12 -22 -23 l-23 -19 19 23 c18 21 26 27 26 19z m-82 -79 c-8 -7
-25 -22 -38 -33 -20 -16 -19 -13 4 13 17 17 34 32 39 32 4 0 2 -6 -5 -12z
m-5186 -60 c-9 -9 -9 -15 1 -27 10 -14 10 -14 -5 -3 -14 11 -15 17 -5 32 6 11
13 17 16 14 3 -2 -1 -10 -7 -16z m5115 16 c-3 -3 -12 -4 -19 -1 -8 3 -5 6 6 6
11 1 17 -2 13 -5z m-18 -27 c-2 -1 -14 -10 -25 -20 -19 -15 -22 -16 -27 -3 -4
10 -1 13 7 10 8 -3 17 -1 21 5 3 6 11 11 17 11 6 0 9 -1 7 -3z m-5058 -54 c13
-16 12 -17 -3 -4 -10 7 -18 15 -18 17 0 8 8 3 21 -13z m4796 -39 c-3 -3 -12
-4 -19 -1 -8 3 -5 6 6 6 11 1 17 -2 13 -5z m103 2 c0 -2 -7 -7 -16 -10 -8 -3
-12 -2 -9 4 6 10 25 14 25 6z m-4795 -36 c3 -6 -1 -7 -9 -4 -18 7 -21 14 -7
14 6 0 13 -4 16 -10z m4720 0 c-3 -5 -12 -10 -18 -10 -7 0 -6 4 3 10 19 12 23
12 15 0z m-4638 -36 c-3 -3 -12 -4 -19 -1 -8 3 -5 6 6 6 11 1 17 -2 13 -5z
m102 -30 c11 -11 -7 -10 -34 3 l-30 14 30 -6 c16 -4 32 -9 34 -11z m96 -2 c-3
-3 -11 0 -18 7 -9 10 -8 11 6 5 10 -3 15 -9 12 -12z m4270 8 c-11 -5 -27 -9
-35 -9 -9 0 -8 4 5 9 11 5 27 9 35 9 9 0 8 -4 -5 -9z m-62 -17 c-7 -2 -19 -2
-25 0 -7 3 -2 5 12 5 14 0 19 -2 13 -5z m-46 -9 c-3 -3 -12 -4 -19 -1 -8 3 -5
6 6 6 11 1 17 -2 13 -5z m-40 -10 c-3 -3 -12 -4 -19 -1 -8 3 -5 6 6 6 11 1 17
-2 13 -5z m-190 -20 c-3 -3 -12 -4 -19 -1 -8 3 -5 6 6 6 11 1 17 -2 13 -5z"/>
</g>
</svg>
